<?xml version="1.0" encoding="utf-8"?>
<!-- Generator: Adobe Illustrator 27.8.1, SVG Export Plug-In . SVG Version: 6.00 Build 0)  -->
<svg version="1.1" id="Layer_1" xmlns="http://www.w3.org/2000/svg" xmlns:xlink="http://www.w3.org/1999/xlink" x="0px" y="0px"
	 viewBox="0 0 24 24" style="enable-background:new 0 0 24 24;" xml:space="preserve">
<style type="text/css">
	.st0{fill:none;}
</style>
<g>
	<rect class="st0" width="24" height="24"/>
</g>
<g>
	<g>
		<path d="M10.2,5.2L8.7,7.8C8.4,8.2,8.6,8.9,9,9.1c0.5,0.3,1.1,0.1,1.4-0.4l1.5-2.6C12.7,4.7,14.6,4.2,16,5s1.9,2.7,1.1,4.1
			l-1.5,2.6c-0.3,0.5-0.1,1.1,0.4,1.4c0.5,0.3,1.1,0.1,1.4-0.4l1.5-2.6c1.4-2.4,0.6-5.5-1.8-6.8S11.5,2.8,10.2,5.2z M10,15.5
			c0.5,0.3,1.1,0.1,1.4-0.4l3-5.2c0.3-0.5,0.1-1.1-0.4-1.4c-0.5-0.3-1.1-0.1-1.4,0.4l-3,5.2C9.4,14.6,9.5,15.2,10,15.5z M13.6,15.2
			l-1.5,2.6c-0.8,1.4-2.7,1.9-4.1,1.1s-1.9-2.7-1.1-4.1l1.5-2.6c0.3-0.5,0.1-1.1-0.4-1.4c-0.5-0.3-1.1-0.1-1.4,0.4l-1.5,2.6
			c-1.4,2.4-0.6,5.5,1.8,6.8c2.4,1.4,5.5,0.6,6.8-1.8l1.5-2.6c0.3-0.5,0.1-1.1-0.4-1.4C14.5,14.6,13.9,14.8,13.6,15.2z"/>
	</g>
</g>
</svg>
