<?xml version="1.0" encoding="utf-8"?>
<!-- Generator: Adobe Illustrator 27.8.1, SVG Export Plug-In . SVG Version: 6.00 Build 0)  -->
<svg version="1.1" id="Layer_1" xmlns="http://www.w3.org/2000/svg" xmlns:xlink="http://www.w3.org/1999/xlink" x="0px" y="0px"
	 viewBox="0 0 24 24" style="enable-background:new 0 0 24 24;" xml:space="preserve">
<style type="text/css">
	.st0{fill:none;}
	.st1{fill:#3787FF;stroke:#FFFFFF;stroke-width:2;stroke-miterlimit:10;}
</style>
<path class="st0" d="M0,0h24v24H0V0z"/>
<path d="M18,19H6c-0.6,0-1-0.5-1-1V6c0-0.6,0.4-1,1-1h5c0.6,0,1-0.4,1-1s-0.4-1-1-1H5C3.9,3,3,3.9,3,5v14c0,1.1,0.9,2,2,2h14
	c1.1,0,2-0.9,2-2v-3c0-0.6-0.5-1.3-1-1.3s-1-0.7-1-0.2V18C19,18.5,18.5,19,18,19z M14,4c0,0.6,0.4,1,1,1h2.6l-9.1,9.1
	c-0.4,0.4-0.4,1,0,1.4s1,0.4,1.4,0L19,6.4V9c0,0.6,0.5,1,1,1s1-0.4,1-1V4c0-0.5-0.5-1-1-1h-5C14.4,3,14,3.5,14,4z"/>
<circle class="st1" cx="17" cy="18" r="4"/>
</svg>
