<svg xmlns="http://www.w3.org/2000/svg" viewBox="0 0 665.09 695.97"><defs><style>.a{fill:none;}.b{clip-path:url(#a);}.c{fill:#80b4ff;}.d{fill:#c5ddff;}.e{fill:#3787ff;}</style><clipPath id="a" transform="translate(-46.88 -32.03)"><rect class="a" x="47" y="32" width="665.88" height="696.96"/></clipPath></defs><g class="b"><path class="c" d="M671.62,179.05A76.81,76.81,0,0,1,712,246.66V513.39A76.81,76.81,0,0,1,671.62,581L415.88,718.8a76.77,76.77,0,0,1-72.89,0L87.25,581a76.79,76.79,0,0,1-40.37-67.61V246.64a76.8,76.8,0,0,1,40.34-67.59L343,41.22a76.8,76.8,0,0,1,72.88,0L671.6,179Zm0,0" transform="translate(-46.88 -32.03)"/><path class="d" d="M704.36,213.33a76.81,76.81,0,0,0-32.76-34.28L415.85,41.25a76.76,76.76,0,0,0-72.86,0L87.25,179.05a76.84,76.84,0,0,0-32.69,34.13L344.17,387.54a72.71,72.71,0,0,0,75.78-.26Zm0,0" transform="translate(-46.88 -32.03)"/></g><path class="e" d="M165.59,246.74,379.42,351.49,593.26,246.74a25.6,25.6,0,0,1,22.53,46L405,396V614.36a25.6,25.6,0,1,1-51.19,0V396L143.06,292.72a25.6,25.6,0,1,1,22.53-46" transform="translate(-46.88 -32.03)"/></svg>
