<?xml version="1.0" encoding="utf-8"?>
<!-- Generator: Adobe Illustrator 27.8.1, SVG Export Plug-In . SVG Version: 6.00 Build 0)  -->
<svg version="1.1" id="Layer_1" xmlns="http://www.w3.org/2000/svg" xmlns:xlink="http://www.w3.org/1999/xlink" x="0px" y="0px"
	 viewBox="0 0 24 24" style="enable-background:new 0 0 24 24;" xml:space="preserve">
<style type="text/css">
	.st0{fill:none;}
</style>
<path class="st0" d="M0,0h24v24H0V0z"/>
<path d="M20.6,12.3L19,11.4c0-0.9-0.2-1.8-0.6-2.6l1.3-0.3c0.5-0.1,0.8-0.7,0.7-1.2s-0.7-0.8-1.2-0.7l-2,0.5
	c-0.3-0.3-0.7-0.6-1.1-0.9c-0.4-0.2-0.9-0.4-1.3-0.6l-0.5-2c-0.1-0.5-0.7-0.8-1.2-0.7c-0.5,0.1-0.8,0.7-0.7,1.2l0.3,1.3
	c-0.9,0.1-1.8,0.3-2.5,0.8L8.4,5.3C8,5,7.3,5.2,7.1,5.7C6.8,6.1,7,6.8,7.4,7l0.9,0.5C8.2,7.8,8,8.1,7.8,8.4L7.3,9.3L6.4,8.8
	C6,8.5,5.3,8.7,5.1,9.1C4.8,9.6,5,10.2,5.4,10.5L6.3,11l-0.5,0.9c-0.2,0.3-0.3,0.6-0.4,0.9l-0.9-0.5C4,12,3.3,12.1,3.1,12.6
	C2.8,13.1,3,13.7,3.4,14L5,14.9c0,2.1,1.1,4.1,3,5.2c1.9,1.1,4.2,1,6,0l1.6,0.9c0.5,0.3,1.1,0.1,1.4-0.4c0.3-0.5,0.1-1.1-0.4-1.4
	l-0.9-0.5c0.2-0.3,0.4-0.5,0.6-0.8l0.5-0.9l0.9,0.5c0.5,0.3,1.1,0.1,1.4-0.4c0.3-0.5,0.1-1.1-0.4-1.4l-0.9-0.5l0.5-0.9
	c0.2-0.3,0.3-0.6,0.4-0.9l0.9,0.5c0.5,0.3,1.1,0.1,1.4-0.4C21.2,13.2,21,12.6,20.6,12.3z M11.4,16.2l-1.7-1C9.2,15,9,14.3,9.3,13.9
	c0.3-0.5,0.9-0.6,1.4-0.4l1.7,1c0.5,0.3,0.6,0.9,0.4,1.4C12.5,16.3,11.8,16.5,11.4,16.2z M13.4,12.8l-1.7-1
	c-0.5-0.3-0.6-0.9-0.4-1.4c0.3-0.5,0.9-0.6,1.4-0.4l1.7,1c0.5,0.3,0.6,0.9,0.4,1.4C14.5,12.9,13.8,13,13.4,12.8z"/>
</svg>
