<svg width="512" height="512" xmlns="http://www.w3.org/2000/svg" xmlns:xlink="http://www.w3.org/1999/xlink">
 <defs>
  <path d="m17,129c0,-61.30371 49.69629,-111 111,-111c61.30371,0 111,49.69629 111,111c0,61.30371 -49.69629,111 -111,111c-61.30371,0 -111,-49.69629 -111,-111z" id="deepin-launcher-b"/>
  <filter filterUnits="objectBoundingBox" y="-6.3%" x="-8.1%" height="116.2%" width="116.2%" id="deepin-launcher-a">
   <feGaussianBlur stdDeviation="5"/>
  </filter>
  <path d="m172.29023,47.20405c-13.1683,-7.14564 -28.25541,-11.20405 -44.29023,-11.20405c-3.85759,0 -7.66034,0.23489 -11.39471,0.69114c-13.8375,19.06416 -21.01047,50.16415 -20.43985,69.1948c0,0 -0.90954,28.19993 18.37748,38.20231c0,0 17.33291,7.61701 29.14502,-17.01295c0,0 8.11834,-13.89983 4.81381,-45.31395c0,0 3.16155,0.55793 3.51901,1.05927c0.35746,0.49728 6.98241,24.18523 2.32747,44.13339c0,0 -4.28556,23.44132 -25.35592,28.80234c-21.06242,5.36102 -37.47784,-7.60893 -48.62269,-19.82688c-8.29983,-9.09853 -20.62176,-33.53254 -26.69028,-62.84231c-11.72709,15.56323 -18.67934,34.92741 -18.67934,55.91495c0,14.49236 3.31502,28.21045 9.22816,40.43737c20.53097,6.06549 72.70224,17.88328 105.89216,-6.44123c21.96964,-16.10443 19.13893,-41.89451 19.13893,-41.89451c-0.36372,-19.61754 -12.30727,-39.10374 -12.30727,-39.10374c46.44186,42.01354 18.99265,88.68931 18.99265,88.68931c-12.77926,26.10154 -39.04908,42.79526 -62.02961,50.25104c4.59324,0.69782 9.29685,1.05965 14.08498,1.05965c51.36266,0 93,-41.63639 93,-92.99789c0,-21.72407 -7.44877,-41.70884 -19.93152,-57.53933c-4.54487,0.31322 -9.825,0.49664 -15.30337,0.31684c0,0 -24.70889,1.15387 -38.56418,8.0646c0,0 -10.33212,4.60716 -20.65999,12.41858c0,0 -2.19192,1.09575 -2.08593,5.12183c0.09327,4.01362 -2.10288,14.71385 -9.42058,20.98539c0,0 -5.22329,2.68544 -2.61165,6.52889c0,0 3.52742,5.12183 8.49633,-0.25734c0,0 12.81233,-13.18228 13.59668,-34.42501c0,0 4.05314,-3.4616 10.45506,-4.48264c0,0 1.17863,31.86824 -14.63539,47.86878c0,0 -15.04241,16.38239 -19.87565,-7.93593c0,0 -5.88469,-23.16861 24.45027,-50.68289c0,0 20.448,-20.42091 32.46751,-29.98388c1.66104,0.69233 3.29908,1.42749 4.91265,2.20406l-0.00001,-0.00001zm-44.29023,183.79595c-56.33322,0 -102,-45.66583 -102,-101.99789c0,-56.33281 45.66752,-102.00211 102,-102.00211c56.33248,0 102,45.6693 102,102.00211c0,56.33206 -45.66678,101.99789 -102,101.99789z" id="deepin-launcher-f"/>
  <filter filterUnits="objectBoundingBox" y="-.5%" x="-.5%" height="102%" width="101%" id="deepin-launcher-e"/>
  <filter filterUnits="objectBoundingBox" y="-.5%" x="-.5%" height="102%" width="101%" id="deepin-launcher-g"/>
  <linearGradient y2="97.178%" y1="4.64%" x2="50%" x1="50%" id="deepin-launcher-c">
   <stop stop-color="#00ABFF" offset="0%"/>
   <stop stop-color="#0163FA" offset="100%"/>
  </linearGradient>
  <linearGradient y2="100%" y1="0%" x2="50%" x1="50%" id="deepin-launcher-d">
   <stop stop-color="#32BBFF" offset="0%"/>
   <stop stop-color="#004FC5" offset="100%"/>
  </linearGradient>
 </defs>
 <g>
  <title>background</title>
  <rect fill="none" id="canvas_background" height="514" width="514" y="-1" x="-1"/>
 </g>
 <g>
  <title>Layer 1</title>
  <g stroke="null" id="svg_1" fill-rule="evenodd" fill="none">
   <use x="0" y="0" transform="matrix(2.15315318107605,0,0,2.15315318107605,-19.603604078292847,-20.756757259368896) " stroke="null" id="svg_2" xlink:href="#deepin-launcher-b" filter="url(#deepin-launcher-a)" fill="#000"/>
   <use x="0" y="0" transform="matrix(2.15315318107605,0,0,2.15315318107605,-19.603604078292847,-20.756757259368896) " stroke="url(#deepin-launcher-d)" id="svg_3" xlink:href="#deepin-launcher-b" stroke-width="2" fill="url(#deepin-launcher-c)"/>
   <g stroke="null" id="svg_4">
    <use x="0" y="0" transform="matrix(2.15315318107605,0,0,2.15315318107605,-19.603604078292847,-20.756757259368896) " stroke="null" id="svg_5" xlink:href="#deepin-launcher-f" filter="url(#deepin-launcher-e)" fill="#000"/>
    <use x="0" y="0" transform="matrix(2.15315318107605,0,0,2.15315318107605,-19.603604078292847,-20.756757259368896) " stroke="null" id="svg_6" xlink:href="#deepin-launcher-f" fill="#F0F9FF"/>
    <use x="0" y="0" transform="matrix(2.15315318107605,0,0,2.15315318107605,-19.603604078292847,-20.756757259368896) " stroke="null" id="svg_7" xlink:href="#deepin-launcher-f" filter="url(#deepin-launcher-g)" fill="#000"/>
   </g>
  </g>
 </g>
</svg>
