<?xml version="1.0" encoding="utf-8"?>
<!-- Generator: Adobe Illustrator 25.4.1, SVG Export Plug-In . SVG Version: 6.00 Build 0)  -->
<svg version="1.1" id="图层_1" xmlns="http://www.w3.org/2000/svg" x="0px" y="0px"
     viewBox="0 0 20 20" style="enable-background:new 0 0 20 20;" xml:space="preserve">
<style type="text/css">
	.st0{fill:url(#SVGID_1_);}
	.st1{fill:#FFFFFF;}
</style>
<g transform="translate(1 1)">

		<linearGradient id="SVG-ID_1_" gradientUnits="userSpaceOnUse" x1="-897.2358" y1="520.3636" x2="-896.3021" y2="519.8489" gradientTransform="matrix(18 0 0 -18 16151 9371)">
		<stop  offset="0" style="stop-color:#0071FF"/>
		<stop  offset="0.4872" style="stop-color:#00E8FC"/>
		<stop  offset="1" style="stop-color:#00A2FF"/>
	</linearGradient>
	<circle class="st0" cx="9" cy="9" r="10"/>
	<path class="st1" d="M13.4,4c0.6,0,1,0.4,1.1,1l0,0.1v4.4c0,3.3-2.2,5.6-5.6,5.6s-5.6-2.2-5.6-5.3l0-0.2V5.1C3.4,4.5,3.9,4,4.6,4
		c0.6,0,1,0.4,1.1,1l0,0.1v4.4c0,2.2,1.7,3.3,3.3,3.3s3.3-1.1,3.3-3.3V5.1C12.3,4.5,12.8,4,13.4,4z"/>
</g>
</svg>
