<?xml version="1.0" encoding="UTF-8" standalone="no"?>
<svg
   xmlns:dc="http://purl.org/dc/elements/1.1/"
   xmlns:cc="http://creativecommons.org/ns#"
   xmlns:rdf="http://www.w3.org/1999/02/22-rdf-syntax-ns#"
   xmlns:svg="http://www.w3.org/2000/svg"
   xmlns="http://www.w3.org/2000/svg"
   xmlns:xlink="http://www.w3.org/1999/xlink"
   xmlns:sodipodi="http://sodipodi.sourceforge.net/DTD/sodipodi-0.dtd"
   xmlns:inkscape="http://www.inkscape.org/namespaces/inkscape"
   sodipodi:docname="deepin-community-store.svg"
   inkscape:version="1.0 (4035a4fb49, 2020-05-01)"
   id="svg8"
   version="1.1"
   viewBox="0 0 200 200"
   height="200mm"
   width="200mm">
  <defs
     id="defs2">
    <linearGradient
       id="linearGradient1200"
       inkscape:collect="always">
      <stop
         id="stop1196"
         offset="0"
         style="stop-color:#000000;stop-opacity:0.1299435" />
      <stop
         id="stop1198"
         offset="1"
         style="stop-color:#dadada;stop-opacity:0.81960785" />
    </linearGradient>
    <linearGradient
       inkscape:collect="always"
       id="linearGradient1138">
      <stop
         style="stop-color:#99e7ea;stop-opacity:1"
         offset="0"
         id="stop1134" />
      <stop
         style="stop-color:#007ffc;stop-opacity:1"
         offset="1"
         id="stop1136" />
    </linearGradient>
    <linearGradient
       id="linearGradient1128"
       inkscape:collect="always">
      <stop
         id="stop1124"
         offset="0"
         style="stop-color:#99e7ea;stop-opacity:1" />
      <stop
         id="stop1126"
         offset="1"
         style="stop-color:#007ffc;stop-opacity:1" />
    </linearGradient>
    <inkscape:path-effect
       only_selected="false"
       apply_with_weight="true"
       apply_no_weight="true"
       helper_size="0"
       steps="2"
       weight="33.333333"
       is_visible="true"
       id="path-effect960"
       effect="bspline" />
    <radialGradient
       gradientUnits="userSpaceOnUse"
       gradientTransform="matrix(1,0,0,0.98112945,0,3.7714702)"
       r="90.135414"
       fy="199.86011"
       fx="100.35268"
       cy="199.86011"
       cx="100.35268"
       id="radialGradient1130"
       xlink:href="#linearGradient1128"
       inkscape:collect="always" />
    <radialGradient
       r="90.135414"
       fy="199.86011"
       fx="100.35268"
       cy="199.86011"
       cx="100.35268"
       gradientTransform="matrix(1,0,0,0.98112945,0,3.7714702)"
       gradientUnits="userSpaceOnUse"
       id="radialGradient1132"
       xlink:href="#linearGradient1138"
       inkscape:collect="always" />
    <radialGradient
       gradientUnits="userSpaceOnUse"
       gradientTransform="matrix(1,0,0,0.98112945,0,3.7714702)"
       r="90.135414"
       fy="199.86011"
       fx="100.35268"
       cy="199.86011"
       cx="100.35268"
       id="radialGradient1202"
       xlink:href="#linearGradient1200"
       inkscape:collect="always" />
    <filter
       id="filter1448"
       inkscape:label="Drop Shadow"
       style="color-interpolation-filters:sRGB;">
      <feFlood
         id="feFlood1438"
         result="flood"
         flood-color="rgb(145,145,145)"
         flood-opacity="0.372549" />
      <feComposite
         id="feComposite1440"
         result="composite1"
         operator="in"
         in2="SourceGraphic"
         in="flood" />
      <feGaussianBlur
         id="feGaussianBlur1442"
         result="blur"
         stdDeviation="5.2918"
         in="composite1" />
      <feOffset
         id="feOffset1444"
         result="offset"
         dy="0"
         dx="0" />
      <feComposite
         id="feComposite1446"
         result="composite2"
         operator="over"
         in2="offset"
         in="SourceGraphic" />
    </filter>
    <filter
       id="filter2201"
       inkscape:label="Drop Shadow"
       style="color-interpolation-filters:sRGB;">
      <feFlood
         id="feFlood2191"
         result="flood"
         flood-color="rgb(145,145,145)"
         flood-opacity="0.372549" />
      <feComposite
         id="feComposite2193"
         result="composite1"
         operator="in"
         in2="SourceGraphic"
         in="flood" />
      <feGaussianBlur
         id="feGaussianBlur2195"
         result="blur"
         stdDeviation="3.76995"
         in="composite1" />
      <feOffset
         id="feOffset2197"
         result="offset"
         dy="0"
         dx="0" />
      <feComposite
         id="feComposite2199"
         result="composite2"
         operator="over"
         in2="offset"
         in="SourceGraphic" />
    </filter>
  </defs>
  <sodipodi:namedview
     inkscape:document-rotation="0"
     inkscape:window-maximized="1"
     inkscape:window-y="-8"
     inkscape:window-x="-8"
     inkscape:window-height="705"
     inkscape:window-width="1366"
     showgrid="false"
     inkscape:current-layer="layer2"
     inkscape:document-units="mm"
     inkscape:cy="507.94585"
     inkscape:cx="120.33119"
     inkscape:zoom="0.35"
     inkscape:pageshadow="2"
     inkscape:pageopacity="0.0"
     borderopacity="1.0"
     bordercolor="#666666"
     pagecolor="#ffffff"
     id="base" />
  <metadata
     id="metadata5">
    <rdf:RDF>
      <cc:Work
         rdf:about="">
        <dc:format>image/svg+xml</dc:format>
        <dc:type
           rdf:resource="http://purl.org/dc/dcmitype/StillImage" />
        <dc:title />
      </cc:Work>
    </rdf:RDF>
  </metadata>
  <g
     transform="translate(0,-97)"
     id="layer1"
     inkscape:groupmode="layer"
     inkscape:label="Layer 1" />
  <g
     inkscape:label="Layer 2"
     id="layer2"
     inkscape:groupmode="layer">
    <path
       inkscape:connector-curvature="0"
       id="path1002"
       d="m 91.937746,32.561862 c 0,0 11.145084,-0.157476 22.599704,6.928753 11.45465,7.086223 18.11074,13.857508 20.27783,18.266716 2.16708,4.409213 9.28755,12.125333 9.13277,26.297793 -0.15488,14.17244 -3.40543,23.620766 -8.97797,31.494326 -5.57254,7.87359 -15.63405,13.85751 -27.70786,14.17247 -12.073834,0.31494 -19.813464,-7.55863 -22.444934,-11.96786 -2.63147,-4.4092 -3.71502,-13.85751 -0.46438,-20.628766 3.25065,-6.77132 8.3588,-6.77132 10.06152,-6.14141 1.70272,0.6299 2.16709,1.5747 3.09585,3.30689 0.92875,1.73219 1.54793,1.41726 2.941094,0.47243 1.39311,-0.94484 1.85748,-2.04715 1.54792,-3.46439 -0.30958,-1.41726 -2.167114,-3.14944 -3.715054,-3.62186 -1.54791,-0.47241 -3.71502,-1.88966 -6.81087,-1.41721 -3.09585,0.47238 -9.13276,2.04711 -14.24091,8.97585 -5.10815,6.928746 -4.48899,17.636836 -1.39313,22.675926 3.09585,5.0391 8.97796,14.48739 21.98054,17.79431 13.002594,3.30693 34.054354,-6.45633 41.329594,-21.57361 7.27524,-15.117296 7.43004,-22.203516 7.12048,-34.643766 C 145.96036,67.048164 134.97008,48.466503 122.74148,41.69522 110.51288,34.923934 101.38012,30.987141 91.937746,32.561862 Z"
       style="fill:#ffc344;fill-opacity:1;stroke:none;stroke-width:0.309114px;stroke-linecap:butt;stroke-linejoin:miter;stroke-opacity:1" />
    <path
       inkscape:connector-curvature="0"
       id="path1012"
       d="m 98.407556,95.469094 c 0,0 -3.06474,-2.8951 -5.80111,2.22698 -2.73637,5.122046 -4.04983,9.687366 -1.31346,15.254856 2.73637,5.56745 8.42801,8.90792 17.184454,8.79659 8.75636,-0.11148 15.21419,-2.22699 19.0451,-8.5739 3.83094,-6.34692 6.7862,-11.02357 7.11457,-13.361906 0.32839,-2.33835 2.07965,0.334036 1.53239,2.338336 -0.54728,2.00426 -0.43783,5.9015 1.09454,5.12204 1.53237,-0.77942 2.73637,-2.00427 2.95526,-1.44753 0.21893,0.55673 -1.75127,4.00859 -2.68162,5.73449 -0.93039,1.7259 -3.83094,5.90153 -5.5275,7.51607 -1.69652,1.61458 -4.04981,3.89724 -6.84092,5.56747 -2.79109,1.67024 -7.11454,3.61887 -9.52255,4.06427 -2.40801,0.44539 -7.22403,1.39184 -9.96042,1.2805 -2.73635,-0.11137 -6.238924,-0.61243 -10.124564,-2.56104 -3.88565,-1.94859 -8.09966,-4.95505 -9.74148,-7.96148 -1.64182,-3.00643 -4.15928,-5.73449 -3.61201,-13.30623 0.54728,-7.571746 3.01001,-11.468986 4.87074,-13.250556 1.86073,-1.7816 4.5971,-2.56105 6.40311,-2.17131 1.806,0.38971 2.95528,1.44755 3.3931,2.22697 0.43781,0.77944 1.14928,2.22699 1.53237,2.50538 z"
       style="fill:#f06767;fill-opacity:1;stroke:none;stroke-width:0.309114px;stroke-linecap:butt;stroke-linejoin:miter;stroke-opacity:1" />
    <path
       inkscape:connector-curvature="0"
       id="path1014"
       d="m 126.2091,135.55481 c 0,0 13.13457,-7.6831 19.26404,-19.82016 6.12948,-12.13707 8.7564,-19.931516 7.99021,-31.845916 -0.76619,-11.91436 -2.62692,-6.01286 -0.54728,-11.13493 2.07964,-5.12208 -1.31345,-15.25486 0.10943,-15.922952 1.42292,-0.668097 4.48765,4.453972 5.3633,8.573902 0.87562,4.11992 4.70654,16.81372 1.64181,32.9594 -3.06472,16.145636 -10.28872,22.603906 -15.10475,26.946546 -4.81603,4.34261 -15.7615,11.91437 -17.40332,11.80302 -1.64183,-0.11148 -1.86073,-0.11148 -1.31348,-1.55891 z"
       style="fill:#3f62eb;fill-opacity:1;stroke:none;stroke-width:0.309114px;stroke-linecap:butt;stroke-linejoin:miter;stroke-opacity:1" />
    <path
       inkscape:connector-curvature="0"
       id="path1016"
       d="m 102.56686,112.17145 c 0,0 7.00512,1.5589 12.36838,-1.78156 5.3633,-3.3405 9.5226,-8.79661 10.17931,-10.912246 0.65672,-2.11564 0.76619,1.892936 1.53236,-0.11125 0.76618,-2.00432 3.83093,-6.01288 2.29855,-15.36624 -1.53237,-9.35333 -1.64182,-9.79875 -4.48762,-14.80947 -2.84586,-5.01072 -9.63207,-11.914367 -13.79134,-14.141356 -4.15927,-2.226986 -9.96037,-5.567464 -17.950604,-5.344766 -7.9902,0.222699 -5.36328,-0.334048 -13.02512,1.002146 -7.66184,1.336187 -14.55749,5.010717 -16.85604,7.015006 -2.29855,2.004286 -8.42802,7.46041 -10.61712,10.46684 -2.1891,3.00643 -8.20911,9.79874 -11.3833,19.26344 -3.17419,9.46469 -4.48765,10.46683 -4.70656,16.702396 -0.21891,6.23557 0.54727,7.90578 -0.76618,8.46256 -1.31346,0.55673 -1.09455,-4.67668 -0.9851,-8.35123 0.10946,-3.6745 0.10946,-13.250556 4.92547,-23.940086 4.81601,-10.68954 13.35349,-19.59749 18.1695,-22.826621 4.81601,-3.229128 10.39821,-7.571752 19.04514,-9.687392 8.64693,-2.115635 17.29386,-1.781586 22.65716,-0.779443 5.363304,1.002145 13.681874,4.453974 18.169504,7.905802 4.48766,3.45183 9.41314,7.683104 13.13459,14.586764 3.72146,6.90365 4.70654,15.70025 4.59709,19.37477 -0.10943,3.67455 -1.97019,12.137106 -4.81601,16.257016 -2.84583,4.11993 -6.67674,9.0193 -10.61711,10.80089 -3.94039,1.78157 -8.75642,2.33833 -12.69675,0.55674 -3.94039,-1.78161 -3.72147,-2.44969 -4.3782,-4.34263 z"
       style="fill:#fce102;fill-opacity:1;stroke:none;stroke-width:0.309114px;stroke-linecap:butt;stroke-linejoin:miter;stroke-opacity:1" />
    <path
       inkscape:connector-curvature="0"
       id="path1018"
       d="m 102.56686,112.17145 c 0,0 5.54674,1.56707 10.22918,-0.55878 4.68248,-2.12587 6.4239,-4.17301 7.54615,-5.3934 1.12223,-1.22042 3.25064,-3.50376 3.83112,-4.56669 0.58046,-1.06292 1.19962,-1.692816 1.19962,-2.086486 0,-0.39369 -1.08353,-1.33853 -0.0386,-3.62186 1.04482,-2.28333 1.97361,-7.51928 1.50922,-9.88134 -0.46438,-2.36207 -1.54792,-15.47161 -10.83547,-24.2113 -9.28753,-8.739679 -18.497714,-9.763243 -18.497714,-9.763243 0,0 14.705314,4.645415 21.593574,18.739133 6.88828,14.09374 4.64376,23.14835 0.23218,28.65986 -4.41158,5.511506 -10.68068,6.141406 -12.38342,4.724146 -1.70268,-1.41725 -5.2113,6.47164 -4.38574,7.95996 z"
       style="fill:#5ed938;fill-opacity:1;stroke:none;stroke-width:0.309114px;stroke-linecap:butt;stroke-linejoin:miter;stroke-opacity:1" />
    <path
       inkscape:connector-curvature="0"
       id="path1020"
       d="m 84.662496,61.615394 c 0,0 -9.90672,-0.0787 -17.41416,4.88161 -7.50743,4.96037 -11.14506,8.9759 -13.23476,12.12533 -2.08969,3.14945 -4.48898,7.47991 -4.17939,7.40118 0.30958,-0.0788 9.05536,-12.2828 15.86623,-15.43223 6.81087,-3.14944 13.62174,-7.55865 22.98669,-4.33049 9.36495,3.22819 13.776544,7.71612 15.788844,6.61383 2.0123,-1.1023 2.3993,-2.44082 1.23835,-3.9368 -1.16094,-1.49598 -9.364964,-8.81842 -21.051804,-7.32243 z"
       style="fill:#8fdbe9;fill-opacity:1;stroke:none;stroke-width:0.309114px;stroke-linecap:butt;stroke-linejoin:miter;stroke-opacity:1" />
    <path
       inkscape:connector-curvature="0"
       id="path1022"
       d="m 69.839846,124.53124 c 0.65673,0.33404 5.58219,8.90795 9.52257,10.35548 3.94037,1.44755 6.56728,1.55888 7.0051,2.227 0.43782,0.66809 0.32837,4.00858 3.83092,5.45614 3.50256,1.44753 19.920794,6.01284 24.627334,6.45824 4.70658,0.4454 0.76621,3.22911 3.61202,4.23125 2.84584,1.00217 14.99532,1.5589 17.95061,0.33405 2.95527,-1.22483 2.95527,1.1135 -2.1891,3.1178 -5.14437,2.00427 -18.71677,6.79231 -27.58261,5.67882 -8.865864,-1.1135 -19.373534,-3.00644 -25.284094,-7.23772 -5.91056,-4.23126 -8.42802,-6.1242 -6.23892,-6.45824 2.18909,-0.33407 7.9902,5.9015 10.50766,6.56959 2.51746,0.66809 4.5971,0.66809 3.06473,-0.8908 -1.53236,-1.55888 -11.49275,-8.46253 -12.47784,-8.1285 -0.9851,0.33405 -3.06474,0.55674 -4.81602,-1.78159 -1.75127,-2.33832 -10.94548,-15.25485 -10.39821,-22.1585 0.54728,-6.90365 2.29856,-5.12208 4.3782,-2.56103 2.07964,2.56103 4.48765,4.78801 4.48765,4.78801 z"
       style="fill:#fd7aff;fill-opacity:1;stroke:none;stroke-width:0.309114px;stroke-linecap:butt;stroke-linejoin:miter;stroke-opacity:1" />
  </g>
</svg>
